<?xml version="1.0" encoding="utf-8"?>
<!-- Generator: Adobe Illustrator 26.5.0, SVG Export Plug-In . SVG Version: 6.00 Build 0)  -->
<svg version="1.1" id="Layer_1" xmlns="http://www.w3.org/2000/svg" xmlns:xlink="http://www.w3.org/1999/xlink" x="0px" y="0px"
	 viewBox="0 0 1300 322.4" style="enable-background:new 0 0 1300 322.4;" xml:space="preserve">
<style type="text/css">
	.st0{filter:url(#Adobe_OpacityMaskFilter);}
	.st1{fill-rule:evenodd;clip-rule:evenodd;fill:#FFFFFF;}
	.st2{mask:url(#mask-2_00000075127138884794491230000003771225843737474997_);fill-rule:evenodd;clip-rule:evenodd;fill:#2196F3;}
	.st3{fill-rule:evenodd;clip-rule:evenodd;fill:#2196F3;}
</style>
<g id="alchemy-logo-horizontal-1920x1080">
	<g id="logoHorizontal" transform="translate(310.000000, 379.000000)">
		<g id="Group-3" transform="translate(-0.000000, 0.000000)">
			<g id="Clip-2">
			</g>
			<defs>
				<filter id="Adobe_OpacityMaskFilter" filterUnits="userSpaceOnUse" x="-310" y="-379" width="273" height="267.4">
					<feColorMatrix  type="matrix" values="1 0 0 0 0  0 1 0 0 0  0 0 1 0 0  0 0 0 1 0"/>
				</filter>
			</defs>
			
				<mask maskUnits="userSpaceOnUse" x="-310" y="-379" width="273" height="267.4" id="mask-2_00000075127138884794491230000003771225843737474997_">
				<g class="st0">
					<polygon id="path-1_00000172404635964405120200000004572169480831950220_" class="st1" points="-310,-379 -37,-379 -37,-111.6 
						-310,-111.6 					"/>
				</g>
			</mask>
			<path id="Fill-1" class="st2" d="M-175.8-296.9c1.2-2.1,4.3-2.1,5.6,0c0,0,46.6,94.8,56.3,116.9c-16.8-8.6-37.3-13.7-59.4-13.7
				c-21.5,0-41.5,4.8-58,12.9C-220.4-205.3-175.8-296.9-175.8-296.9 M-159.6-379h-27.7c-25.9,54.8-115.4,244.6-122.7,267.4h27.4
				c29.1-19.2,63.1-31.3,109.1-31.3c46,0,80,12.1,109.1,31.3H-37C-44.2-134.4-133.7-324.2-159.6-379"/>
		</g>
		<path id="Fill-4" class="st3" d="M144.8-210.1H92.7l26-58.3L144.8-210.1z M196.9-152.9l-71.5-157.7c-1-2-3.6-3.4-5.4-3.4h-2.3
			c-1.7,0-4.4,1.5-5.4,3.5L40.5-152.9c-0.9,2-0.8,4,0.2,5.7c1.1,1.7,2.9,2.6,5.1,2.6h16.3c3.5,0,5.8-2.4,6.7-4.4
			c2.3-5.2,4.6-10.4,6.9-15.6c2.2-4.9,4.4-9.8,6.6-14.7h72.5l13.7,30.3c1.3,2.8,3.6,4.3,6.7,4.3h16.3c2.2,0,4.1-1,5.1-2.6
			C197.8-148.9,197.8-151,196.9-152.9L196.9-152.9z"/>
		<path id="Fill-6" class="st3" d="M229.2-317.8h17.2c2.9,0,5.2,2.4,5.2,5.2v162.7c0,2.9-2.4,5.2-5.2,5.2h-17.2
			c-2.9,0-5.2-2.4-5.2-5.2v-162.7C223.9-315.5,226.3-317.8,229.2-317.8"/>
		<path id="Fill-8" class="st3" d="M336-256.4c16.8,0,29.8,6.9,39.9,19.6c1.9,2.5,1.4,5.8-1.1,7.7l-9.1,8.3c-3.3,3-5.2,0.8-7.4-1.1
			c-5-5.5-13-10.5-22-10.5c-17.9,0-32,15.2-32,33.9c0,19,13.8,34.2,31.7,34.2c14.1,0,19.8-7.2,25.6-12.7c2.5-2.5,5-2.5,7.4-0.5
			l7.4,6.1c2.8,2.2,3.9,5,1.9,7.7c-8.8,14-23.7,23.1-42.7,23.1c-30.9,0-57.6-24.5-57.6-57.6C278.2-230.8,305.4-256.4,336-256.4"/>
		<path id="Fill-10" class="st3" d="M405.8-314.8c0-2.9,2.4-5.3,5.3-5.3h17.5c2.9,0,5.3,2.4,5.3,5.3v69.5
			c2.7-1.9,15.1-11.8,32.3-11.8c30.4,0,44.9,22.2,44.9,52v55c0,2.9-2.4,5.3-5.3,5.3h-17.9c-2.8,0-4.8-2.5-4.8-5.3v-56.6
			c0-18.1-8.4-28.2-21.6-28.2c-15.5,0-26.2,12.8-27.5,17.6v67.3c0,3-2,5.2-5.8,5.2h-16.9c-2.9,0-5.3-2.4-5.3-5.3V-314.8z"/>
		<path id="Fill-12" class="st3" d="M669.6-248.8c0-2.8,2.3-5.2,5.2-5.2h7.8c2.5,0,3.8,1.4,4.7,3.3l3,9.3
			c2.5-2.5,15.1-15.3,36.3-15.3c15.9,0,27.5,6.3,35.5,17.5c3-3,19-17.5,39.8-17.5c33.5,0,45.3,23.5,45.3,51.9v54.9
			c0,2.7-2.2,5.2-5.2,5.2h-17.1c-2.9,0-5-2.4-5-5.2v-55.7c0-17.1-7.6-26.9-21.7-26.9c-15.9,0-25.1,11.7-26.9,13.3
			c0.5,2.5,0.8,7.6,0.8,13v56.2c0,2.8-2.3,5.2-5.2,5.2h-17.2c-2.9,0-4.9-2.4-4.9-5.2v-55.7c0-17.4-7.5-26.9-22.1-26.9
			c-15.6,0-24.4,12.8-25.7,16.3v66.3c0,2.8-2.3,5.2-5.2,5.2h-17c-2.8,0-5.2-2.3-5.2-5.2V-248.8z"/>
		<path id="Fill-14" class="st3" d="M863.3-249.5c-1.7-3.7,0.6-7.4,4.9-7.4h19.2c1.7,0,4,1.4,4.8,3.1l35.2,75.6h0.3l34.1-75.6
			c1.1-2.6,3.4-3.1,6-3.1h16.6c4.6,0,6.9,3.7,4.9,7.4L901.7-60c-0.9,1.7-2.6,3.4-4.9,3.4h-17.2c-4.3,0-6.9-3.7-4.9-7.7l38.4-82.2
			L863.3-249.5z"/>
		<path id="Fill-16" class="st3" d="M593.4-234.2c13.3,0,24.3,9.9,26.9,22.3h-56.6C567.1-224.6,578.7-234.2,593.4-234.2
			 M592.4-256.4c-33.1,0-55.1,26.7-55.1,57.9c0,31.7,22.1,57.9,55.4,57.9c18.5,0,32.8-6.9,40.8-13.8c3.3-2.8,2.5-5,0.6-7.2
			l-7.7-10.5c-2.2-2.8-4.1-1.7-7.4,0.3c-5.5,3.6-14.6,8-24.5,8c-17.9,0-30.9-14.6-31.7-29.5h74.9c2.5,0,4.7-1.9,5-4.7
			c0.3-1.9,0.6-5.5,0.6-7.4C643.1-234.9,621.1-256.4,592.4-256.4"/>
	</g>
</g>
</svg>
